<?xml version="1.0" standalone="no"?>
<!DOCTYPE svg PUBLIC "-//W3C//DTD SVG 20010904//EN"
 "http://www.w3.org/TR/2001/REC-SVG-20010904/DTD/svg10.dtd">
<svg version="1.0" xmlns="http://www.w3.org/2000/svg"
 width="1206.000000pt" height="930.000000pt" viewBox="0 0 1206.000000 930.000000"
 preserveAspectRatio="xMidYMid meet">

<g transform="translate(0.000000,930.000000) scale(0.100000,-0.100000)"
fill="#000000" stroke="none">
<path d="M6046 8298 c-8 -13 -17 -34 -21 -48 -14 -46 -83 -154 -124 -195 -22
-22 -41 -43 -41 -47 0 -4 -20 -35 -44 -70 -24 -35 -47 -78 -51 -95 -9 -43 -21
-49 -53 -26 -45 33 -72 44 -92 38 -24 -8 -75 -128 -91 -218 -7 -37 -17 -67
-23 -67 -5 0 -29 9 -52 20 -53 26 -214 54 -259 46 -22 -4 -42 -17 -52 -33 -15
-22 -15 -35 -4 -122 7 -53 15 -108 18 -122 5 -26 3 -27 -67 -39 -47 -8 -80
-20 -98 -35 -25 -22 -26 -24 -16 -83 l10 -60 -69 -6 c-86 -8 -135 -28 -142
-58 l-6 -23 -192 0 c-229 -1 -287 -14 -459 -100 -127 -64 -159 -86 -248 -176
-65 -64 -200 -252 -200 -277 0 -7 -9 -30 -20 -51 -47 -94 -64 -186 -64 -366
-1 -206 12 -270 90 -430 63 -127 91 -169 183 -269 61 -65 69 -78 75 -125 13
-98 47 -154 158 -263 57 -55 124 -111 150 -124 25 -13 48 -28 50 -33 1 -5 52
-28 111 -51 98 -38 110 -46 123 -76 17 -41 18 -84 2 -84 -7 0 -129 -1 -270 -4
l-257 -3 -16 71 c-37 168 -54 207 -115 269 -56 56 -61 59 -119 64 -58 6 -63 8
-101 53 -43 51 -125 95 -157 83 -46 -16 -73 -45 -79 -83 l-6 -39 -32 23 c-17
13 -79 48 -139 80 -164 87 -252 94 -276 24 -26 -73 -4 -122 100 -228 41 -40
65 -70 54 -66 -43 17 -275 48 -365 49 -80 1 -102 -2 -143 -22 -26 -13 -52 -32
-58 -43 -17 -31 -1 -75 34 -96 18 -11 57 -35 88 -54 31 -19 78 -40 105 -47 47
-11 72 -20 174 -61 25 -11 88 -32 140 -49 52 -16 133 -50 180 -76 47 -26 101
-53 121 -60 49 -18 118 -53 154 -80 37 -28 161 -90 196 -98 14 -4 62 -31 106
-60 44 -29 120 -71 169 -91 49 -21 94 -42 99 -46 10 -7 114 -42 165 -54 14 -4
133 -13 265 -21 246 -15 356 -27 575 -65 190 -33 235 -24 477 92 89 42 265
108 275 102 4 -3 8 -9 8 -14 0 -5 18 -38 41 -74 l41 -65 -27 -83 c-15 -46 -36
-103 -47 -126 -24 -53 -18 -72 21 -72 28 0 31 4 61 95 17 52 35 97 39 100 7 4
69 -112 85 -157 8 -26 52 -23 59 2 8 33 -59 186 -100 228 -16 17 -16 23 1 47
7 11 20 51 29 88 8 38 18 71 20 74 6 6 210 -46 220 -56 5 -5 1 -45 -8 -90 -14
-68 -15 -98 -7 -171 12 -99 24 -130 50 -130 37 0 57 51 31 77 -16 16 -16 200
-1 215 7 7 12 19 12 28 0 8 4 22 9 30 8 12 17 11 60 -9 44 -21 50 -28 56 -61
8 -47 39 -59 71 -29 l21 20 66 -31 c106 -49 195 -57 347 -30 220 38 330 50
575 65 226 13 295 24 390 58 86 32 253 116 318 160 38 26 74 47 81 47 19 0
187 85 225 114 19 14 68 39 109 57 41 17 110 50 153 74 75 42 107 55 219 90
30 9 93 32 140 51 47 18 107 39 135 45 45 11 84 31 187 95 71 45 57 123 -28
153 -56 20 -207 17 -355 -8 -69 -11 -134 -24 -145 -28 -10 -4 14 27 55 67 104
106 126 155 100 228 -24 70 -114 62 -277 -25 -59 -31 -119 -65 -134 -75 -14
-10 -28 -18 -31 -18 -2 0 -7 18 -11 39 -5 34 -12 42 -51 61 l-46 22 -53 -26
c-31 -15 -69 -45 -90 -70 -33 -41 -39 -44 -94 -48 -53 -4 -64 -8 -105 -48 -59
-54 -99 -137 -127 -261 l-21 -96 -257 4 c-141 2 -263 3 -269 3 -17 0 -16 43 1
84 12 29 25 37 112 71 55 21 106 44 114 50 8 6 36 23 61 38 25 14 93 72 151
129 98 97 106 108 136 186 18 46 32 91 32 100 0 10 42 60 93 112 139 142 248
336 264 471 6 47 -6 79 -28 79 -15 0 -74 -58 -89 -87 -79 -155 -217 -286 -360
-341 -97 -38 -138 -45 -260 -45 -109 0 -135 3 -204 26 -177 59 -314 177 -396
341 -104 208 -106 408 -5 613 75 152 223 285 372 335 118 40 283 60 327 40 12
-5 45 -15 75 -22 77 -18 168 -57 221 -94 77 -54 98 -62 115 -45 14 14 18 31
16 60 -1 20 -99 117 -167 166 -77 56 -241 130 -339 154 -99 23 -267 30 -391
16 -71 -9 -71 -9 -78 16 -7 31 -40 43 -136 53 -75 7 -75 7 -60 68 17 76 -11
99 -148 121 -34 5 -42 10 -38 23 11 37 26 150 26 198 0 57 -17 80 -66 90 -41
8 -211 -22 -257 -46 -56 -29 -63 -26 -71 28 -11 83 -58 222 -79 233 -25 14
-59 5 -96 -27 -36 -30 -46 -26 -55 20 -4 18 -18 46 -32 62 -13 16 -34 45 -46
64 -20 32 -93 124 -127 160 -16 17 -71 130 -71 147 0 20 -30 43 -55 43 -15 0
-30 -9 -39 -22z m89 -195 c24 -38 61 -86 80 -108 62 -69 112 -152 125 -205
l12 -50 -38 -43 c-21 -23 -41 -43 -44 -45 -9 -4 -86 119 -114 183 -18 39 -31
56 -50 61 -39 9 -63 -4 -79 -44 -9 -20 -37 -76 -64 -123 l-48 -85 -47 51 -47
52 13 50 c13 48 42 103 55 103 3 1 22 24 41 51 19 28 49 68 65 88 17 20 43 58
59 84 17 26 31 47 33 47 1 0 23 -30 48 -67z m-4 -395 c17 -35 46 -83 63 -108
48 -68 91 -149 112 -210 41 -119 15 -389 -48 -514 -19 -37 -136 -206 -161
-233 -9 -9 -25 5 -69 65 -76 101 -145 240 -162 327 -48 237 -27 333 135 600
29 50 60 96 67 103 6 7 12 18 12 23 0 26 23 2 51 -53z m-372 -27 c18 -14 48
-45 66 -69 l34 -43 -30 -65 c-16 -36 -36 -92 -44 -124 -19 -74 -19 -245 0
-347 16 -88 69 -232 94 -260 23 -25 63 -83 58 -83 -20 0 -101 55 -147 100
-108 105 -153 198 -185 379 -29 166 -15 399 31 544 l16 48 36 -27 c21 -15 52
-39 71 -53z m776 36 c4 -17 11 -37 15 -42 19 -24 43 -196 43 -305 -1 -114 -27
-295 -44 -306 -5 -3 -9 -13 -9 -23 0 -36 -73 -163 -128 -222 -50 -54 -172
-149 -172 -134 0 3 18 32 40 65 43 63 56 95 112 269 25 79 25 321 0 374 -5 12
-20 47 -32 77 -12 30 -28 65 -36 77 -12 19 -10 25 17 60 17 21 41 44 55 51 13
7 24 16 24 21 0 5 19 21 43 37 23 16 44 32 45 37 7 14 21 -4 27 -36z m-1160
-185 c33 -9 74 -25 91 -36 l31 -20 6 -140 c7 -149 27 -269 59 -350 25 -65 92
-177 123 -206 74 -69 -23 -31 -117 47 -209 170 -318 381 -344 663 l-7 73 49
-7 c27 -4 76 -15 109 -24z m1571 -66 c-7 -103 -34 -223 -64 -283 -30 -60 -114
-206 -131 -229 -28 -35 -183 -164 -222 -185 -69 -35 -67 -28 27 96 58 77 99
238 116 456 11 134 15 156 33 171 23 19 133 55 185 61 19 2 41 5 49 5 11 2 13
-15 7 -92z m-1748 -263 c6 -21 37 -87 69 -147 61 -114 142 -213 238 -289 l50
-40 -40 5 c-75 10 -155 58 -241 143 -108 108 -213 271 -214 332 0 24 14 30 81
32 45 1 46 0 57 -36z m1891 31 c37 -8 37 -12 7 -86 -37 -91 -92 -166 -196
-269 -83 -81 -109 -101 -171 -127 -110 -46 -120 -20 -18 46 69 45 205 245 255
375 25 64 27 67 59 67 18 0 47 -3 64 -6z m-2016 -246 c76 -105 139 -175 200
-222 31 -24 63 -46 70 -49 6 -2 10 -7 7 -10 -10 -11 -157 21 -201 43 -101 52
-149 90 -202 162 -45 63 -77 117 -77 133 0 3 36 5 79 5 l79 0 45 -62z m2223
36 c-12 -46 -70 -127 -132 -183 -81 -74 -183 -119 -309 -135 l-40 -5 24 19
c13 11 29 20 36 20 20 0 182 177 227 248 l40 62 80 0 80 0 -6 -26z m543 -41
c103 -26 222 -73 261 -103 24 -18 22 -18 -55 2 -58 15 -110 21 -191 20 -220 0
-379 -65 -532 -219 -62 -61 -75 -70 -79 -54 -3 11 -24 32 -46 47 -23 16 -44
30 -46 31 -3 2 29 34 70 72 42 39 89 94 108 128 34 59 36 60 100 76 96 24 106
25 216 24 71 0 129 -7 194 -24z m-3154 -13 c119 -16 136 -24 169 -76 27 -43
97 -116 155 -162 l25 -19 -26 -14 c-14 -8 -38 -29 -53 -47 -51 -61 -23 -86
145 -133 25 -7 50 -17 57 -22 7 -5 55 -9 107 -10 l95 0 -34 -61 c-50 -91 -70
-161 -56 -193 12 -26 23 -27 91 -11 10 2 14 -4 13 -17 -1 -11 -7 -82 -13 -158
-6 -76 -17 -155 -26 -175 -20 -50 -10 -92 22 -92 14 0 34 5 46 11 18 10 19 8
13 -11 -18 -57 -80 -173 -131 -245 -94 -133 -261 -255 -426 -311 -86 -29 -110
-30 -191 -5 -34 10 -92 26 -130 35 -71 16 -126 41 -272 124 -92 52 -171 77
-209 67 -11 -4 -38 -13 -59 -22 l-38 -16 -40 39 c-89 86 -193 262 -223 378
-54 205 -43 408 30 595 30 74 134 238 185 290 19 19 59 52 89 75 30 22 57 44
60 47 12 16 173 89 235 108 85 26 239 50 280 45 17 -2 66 -9 110 -14z m2392
-325 c11 -3 24 -12 26 -19 7 -17 -57 -35 -161 -46 -80 -8 -237 14 -302 43
l-35 16 55 -7 c95 -12 281 -6 325 10 39 15 49 16 92 3z m-1804 -16 c68 -10
110 -10 190 -2 56 7 103 10 105 9 6 -7 -97 -35 -178 -49 -87 -15 -192 -11
-267 12 -52 15 -58 22 -32 38 25 14 32 13 182 -8z m575 -11 l35 -22 -44 -38
c-92 -80 -259 -188 -290 -188 -5 0 -28 -9 -52 -19 -23 -11 -51 -22 -62 -24
-11 -3 -30 -8 -42 -12 -33 -9 -29 8 17 79 47 73 115 133 185 162 27 12 75 35
105 52 65 37 100 40 148 10z m686 -38 c93 -45 133 -72 172 -112 52 -54 94
-118 94 -143 0 -15 -49 -6 -107 21 -17 8 -34 14 -39 14 -23 0 -196 95 -226
124 -21 20 -41 36 -45 36 -4 0 -28 18 -52 39 l-45 38 40 21 c21 12 50 21 63
22 14 0 79 -27 145 -60z m651 -82 c-62 -117 -80 -196 -79 -348 0 -121 3 -143
28 -215 35 -98 61 -159 80 -182 8 -10 36 -46 61 -81 51 -68 190 -175 259 -199
21 -8 50 -20 65 -27 37 -20 133 -38 231 -45 l85 -6 -55 -31 c-30 -17 -75 -42
-100 -56 -52 -29 -107 -47 -240 -78 -93 -22 -97 -22 -155 -6 -61 18 -222 95
-246 118 -8 7 -34 28 -59 47 -45 34 -130 119 -130 130 0 3 -16 24 -36 46 -33
37 -114 188 -114 211 0 6 13 9 30 6 43 -6 52 24 28 96 -10 30 -18 78 -18 106
-1 28 -7 93 -14 143 -7 51 -11 95 -8 97 2 3 15 1 29 -5 13 -5 35 -9 48 -9 52
0 44 92 -18 202 l-43 75 88 0 c48 0 98 4 111 10 31 15 168 60 188 62 13 1 10
-11 -16 -61z m-1028 20 c35 1 38 -3 87 -103 32 -68 58 -225 50 -301 -9 -77
-49 -200 -79 -244 -28 -40 -115 -222 -115 -239 0 -24 -18 -9 -36 31 -10 23
-43 89 -71 146 -29 56 -62 133 -74 170 -11 37 -25 76 -31 88 -23 48 4 237 51
352 32 79 51 104 75 99 12 -3 32 -1 46 3 14 4 34 5 45 2 11 -3 34 -4 52 -4z
m-298 -85 c-15 -41 -59 -113 -68 -113 -4 0 -14 -11 -21 -25 -7 -13 -30 -36
-52 -50 l-38 -25 0 37 c0 55 20 101 49 112 14 5 50 27 80 50 30 23 56 41 58
41 1 0 -2 -12 -8 -27z m535 -33 c4 0 24 -12 46 -26 32 -22 40 -33 45 -68 4
-24 5 -53 3 -66 -3 -21 -9 -18 -67 41 -57 58 -111 140 -111 170 0 6 18 -3 39
-20 21 -17 42 -31 45 -31z m-800 -200 c11 -138 34 -150 131 -65 34 30 65 55
69 55 10 0 7 -109 -4 -130 -14 -26 -85 -64 -160 -84 -36 -10 -74 -22 -85 -26
-91 -34 -123 -34 -110 -1 3 9 11 70 16 136 7 74 16 129 26 143 12 20 82 61
104 62 4 0 10 -41 13 -90z m1048 70 c46 -20 58 -37 76 -105 14 -50 25 -245 15
-245 -5 0 -30 7 -58 16 -27 8 -87 26 -132 40 -45 13 -100 36 -122 51 -34 25
-40 34 -45 78 -7 51 -1 85 14 85 5 0 32 -25 61 -55 54 -57 85 -68 112 -40 18
17 32 121 22 164 -8 36 -2 38 57 11z m-783 -373 c11 -29 40 -88 65 -132 25
-44 46 -83 46 -88 0 -5 7 -23 15 -41 9 -18 25 -63 38 -102 21 -66 24 -69 55
-72 35 -4 62 11 62 34 0 25 68 187 113 271 25 46 55 109 68 140 13 32 24 59
24 60 1 2 19 -6 41 -16 21 -10 96 -38 166 -61 109 -36 127 -45 132 -66 7 -27
46 -115 79 -179 96 -187 270 -355 446 -432 111 -48 112 -52 19 -87 -40 -16
-89 -39 -109 -52 -40 -25 -49 -23 -49 11 0 41 -115 237 -147 249 -25 10 -49
-11 -72 -64 -12 -27 -25 -50 -29 -50 -14 0 -262 366 -262 387 0 7 -3 13 -7 13
-5 0 -28 32 -53 70 -47 74 -67 88 -98 71 -15 -8 -22 -28 -29 -90 -12 -94 -42
-163 -109 -251 -57 -75 -107 -166 -125 -228 -13 -44 -40 -72 -70 -72 -11 0
-20 15 -28 47 -17 67 -84 201 -123 248 -79 93 -118 184 -118 274 0 42 -4 53
-24 66 -21 14 -28 14 -46 3 -21 -13 -110 -139 -110 -156 0 -5 -30 -53 -67
-105 -38 -53 -84 -121 -103 -152 -19 -31 -42 -64 -51 -74 -9 -9 -22 -28 -29
-41 l-12 -23 -19 24 c-10 13 -20 38 -24 56 -8 46 -38 60 -72 33 -51 -40 -143
-204 -143 -254 0 -31 -9 -32 -41 -7 -13 10 -55 33 -93 50 -38 17 -67 33 -65
35 2 3 48 27 101 55 129 66 169 95 259 188 72 73 95 103 160 207 32 52 85 180
94 228 7 36 9 38 79 58 39 12 79 25 88 31 10 5 26 9 35 9 10 0 36 11 58 24 48
28 57 22 84 -47z m2571 -251 c0 -13 -155 -202 -184 -226 l-37 -28 -44 25 c-25
13 -45 26 -45 27 0 2 33 19 73 39 40 20 106 65 147 101 67 58 90 74 90 62z
m-2685 -98 c14 -29 25 -58 25 -64 0 -10 52 -87 111 -164 31 -41 76 -133 83
-170 4 -23 2 -42 -6 -52 -7 -8 -65 -30 -128 -48 -63 -18 -119 -36 -125 -40
-21 -16 -143 -42 -227 -49 l-87 -6 -6 26 c-8 35 10 110 41 171 23 46 145 231
223 339 17 22 35 56 41 75 6 19 16 34 21 34 6 0 21 -24 34 -52z m744 5 c13
-27 38 -68 57 -93 70 -94 185 -267 209 -317 28 -56 42 -136 31 -178 l-7 -28
-26 24 c-14 13 -40 47 -57 74 -50 77 -137 166 -181 186 -61 28 -110 24 -194
-16 -40 -19 -82 -35 -93 -35 -19 0 -20 2 -6 18 9 9 19 27 23 40 4 13 45 80 91
148 46 69 91 147 101 175 10 27 20 49 23 49 3 0 16 -21 29 -47z m-2238 -256
c113 -64 143 -76 409 -158 180 -55 283 -96 339 -134 126 -86 210 -121 315
-135 56 -7 90 -4 195 16 69 13 169 37 221 53 52 17 127 37 165 47 39 9 76 21
83 27 8 6 12 6 12 -1 0 -5 67 -78 150 -161 119 -120 156 -164 180 -215 30 -62
31 -66 29 -198 l-3 -134 -125 -37 c-69 -20 -171 -48 -226 -61 -209 -51 -437
-133 -515 -187 -74 -50 -226 -73 -325 -49 -39 10 -147 25 -250 36 -27 3 -72 9
-100 14 -27 5 -126 14 -220 20 -232 14 -259 17 -345 39 -65 16 -183 63 -230
91 -38 23 -176 98 -285 154 -66 35 -142 76 -170 93 -27 16 -66 35 -85 42 -19
6 -78 36 -130 65 -56 32 -148 71 -225 96 -71 23 -137 48 -145 55 -19 16 -109
49 -179 65 -52 12 -161 67 -161 81 0 4 7 12 16 20 19 15 194 17 227 2 12 -6
58 -16 102 -23 138 -20 415 -103 455 -136 13 -11 99 -47 274 -116 59 -23 144
-26 531 -15 149 4 287 7 308 7 73 0 97 67 61 172 -13 41 -24 51 -82 86 -37 22
-93 49 -126 61 -87 32 -142 68 -217 141 -37 36 -83 79 -102 95 -24 21 -41 51
-56 97 -28 84 -25 128 9 146 45 24 100 9 221 -61z m3884 53 c34 -29 -3 -176
-58 -229 -177 -170 -189 -180 -271 -220 -46 -22 -89 -41 -95 -41 -7 0 -40 -16
-75 -36 -54 -31 -67 -44 -85 -86 -27 -63 -28 -131 -1 -158 22 -22 32 -23 215
-20 72 1 216 -4 320 -10 211 -12 312 -5 385 28 66 29 228 92 239 92 5 0 14 6
20 13 26 32 298 115 446 137 44 7 90 17 102 22 34 16 207 15 227 -1 9 -7 16
-17 16 -21 0 -14 -107 -66 -180 -86 -90 -26 -143 -46 -161 -60 -8 -6 -72 -31
-144 -54 -77 -25 -169 -64 -225 -96 -52 -29 -110 -58 -128 -65 -17 -6 -67 -31
-110 -56 -42 -24 -115 -63 -162 -85 -47 -23 -97 -50 -112 -60 -14 -10 -53 -32
-85 -48 -32 -17 -65 -34 -73 -39 -8 -5 -46 -24 -84 -41 -120 -53 -204 -70
-431 -86 -115 -7 -241 -18 -280 -24 -38 -5 -86 -12 -105 -14 -19 -2 -60 -7
-90 -11 -30 -4 -91 -13 -135 -22 -96 -18 -213 -13 -270 12 -121 54 -155 79
-155 117 0 26 -29 87 -52 110 -10 10 -18 24 -18 31 0 22 41 52 104 78 79 32
156 103 191 176 26 55 27 64 23 178 -3 90 -8 128 -21 153 -20 36 -24 33 65 50
70 13 153 50 239 108 73 48 177 97 242 114 23 7 89 27 147 45 58 18 131 41
164 50 68 19 118 42 196 86 142 82 164 91 207 86 24 -3 50 -10 58 -17z m-2826
-297 c-6 -41 -8 -81 -5 -89 8 -22 -7 -24 -60 -8 -39 11 -52 21 -60 42 -12 33
3 92 41 157 l27 45 34 -36 33 -36 -10 -75z m1650 89 c16 -31 30 -69 31 -82 5
-61 1 -71 -42 -90 -71 -32 -77 -29 -76 38 0 32 -4 67 -9 78 -12 23 0 62 21 70
9 3 18 14 21 25 10 31 23 22 54 -39z m-399 -61 c36 -37 83 -98 105 -135 21
-38 44 -74 50 -80 19 -20 35 -66 35 -101 0 -19 5 -37 10 -40 17 -10 11 -127
-8 -183 -11 -29 -32 -66 -47 -82 -25 -26 -150 -89 -159 -79 -22 23 -125 248
-135 294 -7 32 -17 66 -21 75 -4 8 -18 40 -31 70 -35 81 -98 191 -127 222 -14
15 -24 29 -21 31 4 2 30 14 168 72 71 30 97 21 181 -64z m-3345 -10 c101 -52
121 -67 260 -201 82 -80 170 -162 194 -183 25 -20 40 -37 33 -37 -15 0 -63 21
-82 36 -8 6 -33 17 -55 24 -162 50 -324 154 -458 294 -73 76 -91 102 -84 120
10 25 73 7 192 -53z m5911 54 c8 -20 -14 -51 -88 -127 -142 -144 -257 -217
-443 -283 -27 -10 -57 -24 -65 -30 -19 -14 -68 -35 -82 -35 -7 0 8 17 33 37
24 21 112 103 194 183 134 129 162 151 251 197 84 44 142 66 187 72 4 1 10 -6
13 -14z m-5550 -81 c18 -19 58 -78 90 -132 32 -53 78 -125 102 -159 23 -35 40
-63 37 -63 -17 0 -109 73 -186 147 -65 63 -93 98 -114 144 -34 76 -29 114 13
105 15 -4 41 -22 58 -42z m5088 21 c12 -49 -42 -142 -135 -230 -81 -78 -176
-151 -184 -143 -3 2 8 20 23 39 16 19 59 85 97 148 37 63 75 123 84 135 62 79
104 97 115 51z m-2523 -48 c82 -80 142 -168 125 -184 -3 -3 -6 -1 -6 5 0 6
-19 26 -43 44 -48 36 -137 133 -137 148 0 18 37 10 61 -13z m-2345 -84 c14 -9
36 -33 48 -52 22 -35 61 -169 52 -178 -2 -2 -30 37 -63 87 -32 50 -68 107 -80
126 -22 33 -22 34 -2 34 11 0 31 -8 45 -17z m4618 5 c-4 -7 -20 -31 -34 -53
-15 -22 -49 -73 -75 -113 -26 -40 -49 -71 -52 -69 -8 8 30 142 49 174 11 18
31 42 45 53 29 22 79 28 67 8z m-1958 -554 c7 -38 -8 -66 -26 -48 -11 11 -2
84 11 84 4 0 11 -16 15 -36z m-51 -154 c6 -10 -31 -80 -42 -80 -19 0 -113 33
-113 40 0 9 88 40 142 49 4 0 10 -4 13 -9z m89 -91 c22 -37 18 -42 -21 -27
-28 10 -30 14 -20 35 13 30 19 29 41 -8z m-474 -20 c0 -20 -23 -89 -29 -89
-10 0 -41 56 -41 73 0 15 17 23 53 26 9 0 17 -4 17 -10z"/>
<path d="M6748 2625 c-20 -18 -34 -36 -32 -38 6 -6 -137 -342 -178 -419 -20
-37 -39 -60 -57 -67 -20 -7 -7 -9 59 -9 47 0 74 3 61 7 -45 12 -47 33 -14 118
l30 78 108 0 108 0 29 -84 c31 -89 28 -106 -15 -114 -12 -2 32 -5 98 -5 111
-1 117 0 88 13 -41 18 -54 43 -159 322 -47 125 -87 229 -87 230 -1 1 -19 -14
-39 -32z m31 -194 c23 -58 41 -106 41 -108 0 -2 -43 -3 -96 -3 -73 0 -95 3
-91 13 52 130 92 216 98 210 4 -4 26 -55 48 -112z"/>
<path d="M10410 2648 c-25 -5 -147 -8 -271 -6 l-226 4 -9 -68 c-10 -72 -4 -87
16 -39 6 16 25 41 41 57 27 26 36 28 107 29 l77 0 -2 -243 c-1 -169 -6 -248
-14 -258 -6 -8 -26 -18 -43 -23 -22 -7 5 -9 99 -9 92 0 121 2 100 9 -54 16
-55 22 -55 287 l0 245 80 -5 c88 -5 111 -18 146 -84 10 -18 21 -34 24 -34 7 0
-12 136 -20 142 -3 3 -25 1 -50 -4z"/>
<path d="M916 2636 c18 -8 34 -24 37 -37 9 -31 7 -371 -1 -429 -6 -39 -12 -48
-42 -62 l-35 -18 120 0 c110 1 117 2 89 14 -17 8 -34 21 -38 31 -3 9 -6 66 -6
126 l0 109 155 0 155 0 0 -119 c0 -128 -2 -135 -57 -151 -19 -5 14 -8 97 -8
69 0 116 3 105 5 -11 3 -28 12 -37 21 -16 14 -18 39 -18 252 0 213 2 238 18
252 9 9 26 18 37 21 11 2 -34 5 -100 4 -66 0 -110 -2 -98 -4 43 -8 53 -39 53
-155 l0 -109 -152 3 -153 3 -3 85 c-4 121 2 148 41 165 30 13 24 14 -83 14
-105 0 -112 -1 -84 -13z"/>
<path d="M1847 2639 c21 -6 35 -18 38 -32 4 -13 5 -125 3 -251 -3 -248 -1
-237 -63 -258 -11 -3 90 -5 224 -5 l244 2 19 69 c10 38 17 70 15 72 -1 2 -18
-18 -37 -44 -50 -67 -87 -85 -185 -90 -74 -4 -85 -2 -104 17 -19 19 -21 32
-21 136 l0 115 45 0 c65 0 103 -23 126 -76 11 -24 22 -44 24 -44 3 0 5 57 5
127 0 125 -5 141 -26 80 -15 -43 -49 -64 -116 -72 l-58 -6 0 130 0 131 73 0
c102 0 139 -13 197 -70 27 -27 50 -46 50 -42 0 3 -10 32 -22 64 l-23 58 -220
-1 c-154 -1 -210 -4 -188 -10z"/>
<path d="M2638 2639 c21 -6 36 -19 42 -35 11 -29 12 -378 2 -439 -6 -33 -14
-43 -42 -57 -34 -18 -30 -18 216 -18 l251 0 12 76 c12 74 10 109 -4 62 -11
-36 -53 -86 -88 -105 -41 -22 -218 -26 -239 -5 -16 15 -24 392 -11 457 7 32
16 44 43 57 l35 18 -125 -1 c-96 -1 -117 -3 -92 -10z"/>
<path d="M3427 2643 c43 -8 48 -27 51 -202 2 -91 -1 -200 -5 -241 -8 -73 -9
-76 -43 -92 -34 -18 -30 -18 206 -18 l242 0 16 65 c22 88 20 94 -13 49 -44
-61 -86 -92 -136 -100 -59 -8 -152 -1 -167 14 -7 7 -14 60 -16 133 l-5 122 61
-5 c70 -5 95 -22 123 -83 l18 -40 0 130 c-1 114 -2 126 -13 96 -18 -50 -55
-77 -116 -84 -29 -4 -57 -4 -61 -1 -10 6 -12 214 -3 238 5 12 21 16 74 16 105
0 126 -8 193 -69 33 -31 58 -49 55 -41 -4 8 -16 39 -28 68 l-23 52 -216 -1
c-119 -1 -206 -4 -194 -6z"/>
<path d="M4217 2635 c53 -23 56 -37 51 -267 -4 -189 -7 -211 -25 -236 -11 -14
-31 -30 -44 -33 -13 -4 21 -7 76 -7 76 0 92 2 69 9 -57 16 -59 22 -63 263 -3
207 -2 219 14 206 9 -8 107 -119 217 -247 110 -128 203 -233 208 -233 4 0 10
111 12 248 3 136 8 255 13 266 4 10 22 24 39 32 29 12 24 13 -64 13 -87 0 -92
-1 -65 -13 55 -24 56 -28 53 -224 l-3 -180 -179 209 -179 209 -81 0 c-78 -1
-80 -1 -49 -15z"/>
<path d="M5546 2636 c17 -8 34 -21 38 -31 3 -9 6 -105 5 -213 -1 -226 -7 -258
-60 -284 l-34 -18 105 1 c83 1 98 3 73 10 -60 18 -64 32 -61 270 l3 214 44
-100 c25 -55 73 -165 107 -244 57 -130 64 -142 73 -120 64 147 211 472 215
477 11 11 6 -414 -5 -447 -6 -17 -12 -31 -12 -31 -1 0 -20 -7 -42 -15 -38 -14
-34 -14 95 -14 125 0 133 1 102 14 -50 22 -54 46 -50 281 3 190 5 214 22 232
10 12 28 23 40 25 11 2 -18 5 -65 6 l-85 1 -28 -67 c-30 -72 -147 -335 -153
-343 -7 -8 -20 20 -105 217 l-83 193 -85 -1 c-80 0 -83 -1 -54 -13z"/>
<path d="M7338 2635 c18 -8 37 -26 43 -42 14 -35 6 -406 -10 -446 -6 -16 -24
-34 -43 -42 -31 -13 -28 -14 67 -14 90 0 97 1 65 12 -57 19 -61 39 -58 274 l3
208 210 -244 c116 -135 216 -246 223 -249 9 -3 12 47 12 225 0 261 6 298 53
318 30 13 26 14 -68 14 -79 -1 -93 -3 -68 -10 59 -17 64 -35 61 -233 l-3 -176
-179 210 -180 210 -80 0 c-79 -1 -80 -1 -48 -15z"/>
<path d="M8257 2643 c44 -9 48 -26 51 -217 1 -100 -1 -208 -5 -241 -7 -55 -11
-61 -43 -77 -34 -18 -30 -18 206 -18 l242 0 16 65 c22 88 20 94 -13 49 -44
-61 -86 -92 -136 -100 -60 -9 -152 -1 -168 15 -8 8 -13 56 -16 133 l-3 121 61
-5 c69 -5 94 -22 122 -83 l18 -40 0 130 c-1 114 -2 126 -13 96 -18 -50 -55
-77 -116 -84 -29 -4 -57 -4 -61 -1 -10 6 -12 214 -3 238 5 12 21 16 74 16 105
0 126 -8 193 -69 33 -31 58 -49 55 -41 -4 8 -16 39 -28 68 l-23 52 -216 -1
c-119 -1 -206 -4 -194 -6z"/>
<path d="M9037 2643 c13 -2 32 -16 44 -31 21 -26 21 -34 17 -240 -4 -194 -6
-215 -25 -240 -11 -14 -31 -30 -44 -33 -13 -4 21 -7 76 -7 78 0 93 2 68 9 -53
15 -57 33 -61 269 -4 201 -3 213 13 200 9 -8 107 -119 217 -247 110 -128 203
-233 208 -233 5 0 10 111 12 248 2 136 8 255 12 266 5 10 23 24 40 32 29 12
24 13 -64 13 -87 0 -92 -1 -65 -13 57 -25 60 -33 63 -229 2 -112 0 -178 -6
-176 -5 2 -89 97 -187 212 l-178 207 -81 -1 c-44 -1 -71 -4 -59 -6z"/>
<path d="M10777 2643 c44 -9 48 -26 51 -217 1 -100 -1 -208 -5 -241 -7 -55
-11 -61 -43 -77 -34 -18 -30 -18 206 -18 l242 0 16 65 c22 88 20 94 -13 49
-44 -61 -86 -92 -136 -100 -59 -8 -152 -1 -167 14 -7 7 -14 60 -16 133 l-5
122 61 -5 c70 -5 95 -22 123 -83 l18 -40 0 130 c-1 114 -2 126 -13 96 -18 -50
-55 -77 -116 -84 -29 -4 -57 -4 -61 -1 -10 6 -12 197 -3 232 6 20 12 22 74 22
105 0 126 -8 193 -69 33 -31 58 -49 55 -41 -4 8 -16 39 -28 68 l-23 52 -216
-1 c-119 -1 -206 -4 -194 -6z"/>
<path d="M5775 1656 c56 -16 89 -50 107 -111 27 -97 2 -203 -61 -256 -32 -27
-33 -30 -11 -24 44 12 104 59 127 100 28 49 31 140 7 188 -37 72 -82 103 -165
112 l-54 5 50 -14z"/>
<path d="M6279 1647 c-121 -64 -148 -241 -50 -330 67 -60 166 -74 266 -36 l55
20 0 64 c0 50 4 66 17 74 13 7 -1 10 -50 13 -37 1 -67 1 -67 -2 0 -3 9 -11 20
-18 31 -19 28 -105 -5 -137 -30 -31 -94 -34 -145 -6 -107 57 -108 277 -1 348
71 47 175 20 213 -55 25 -51 28 -50 28 12 0 45 -3 57 -14 53 -7 -3 -31 1 -52
8 -64 23 -163 19 -215 -8z"/>
<path d="M6972 1647 c-12 -13 -22 -27 -22 -31 0 -26 -135 -315 -156 -333 l-25
-23 53 0 c41 1 49 3 36 11 -23 13 -23 36 3 93 l20 47 76 -3 76 -3 20 -59 c19
-57 19 -60 1 -73 -15 -11 -7 -13 62 -12 63 0 75 2 57 11 -27 13 -38 36 -109
229 -31 84 -60 157 -63 162 -4 4 -17 -3 -29 -16z m17 -127 c17 -43 31 -82 31
-85 0 -3 -29 -5 -65 -5 -36 0 -65 3 -65 6 0 3 14 36 30 74 17 38 30 73 30 79
0 25 10 7 39 -69z"/>
<path d="M4997 1650 c11 -5 49 -53 82 -107 l61 -98 -2 -80 c-3 -74 -5 -80 -28
-92 -22 -11 -15 -13 60 -12 69 0 81 2 63 11 -21 10 -23 18 -23 100 l0 89 61
90 c33 50 70 94 82 99 16 6 4 9 -43 9 -49 0 -59 -3 -42 -9 12 -5 22 -17 22
-26 0 -18 -80 -154 -91 -154 -7 0 -99 152 -99 164 0 4 10 11 23 16 16 6 -2 9
-63 9 -58 0 -78 -3 -63 -9z"/>
<path d="M5655 1643 c-44 -23 -65 -44 -86 -85 -21 -42 -25 -130 -8 -175 25
-67 111 -123 184 -122 l40 2 -43 6 c-83 14 -126 84 -125 202 1 80 29 140 76
169 25 16 28 20 12 20 -11 -1 -33 -8 -50 -17z"/>
</g>
</svg>
